<?xml version="1.0" encoding="UTF-8" standalone="no"?>
<!-- Created with Inkscape (http://www.inkscape.org/) -->

<svg
   width="60"
   height="60"
   id="svg3209"
   version="1.1"
   inkscape:version="1.1 (c4e8f9e, 2021-05-24)"
   sodipodi:docname="blinky.svg"
   xmlns:inkscape="http://www.inkscape.org/namespaces/inkscape"
   xmlns:sodipodi="http://sodipodi.sourceforge.net/DTD/sodipodi-0.dtd"
   xmlns="http://www.w3.org/2000/svg"
   xmlns:svg="http://www.w3.org/2000/svg"
   xmlns:rdf="http://www.w3.org/1999/02/22-rdf-syntax-ns#"
   xmlns:cc="http://creativecommons.org/ns#"
   xmlns:dc="http://purl.org/dc/elements/1.1/">
  <title
     id="title3238">blinky</title>
  <defs
     id="defs3211" />
  <sodipodi:namedview
     id="base"
     pagecolor="#ffffff"
     bordercolor="#666666"
     borderopacity="1.0"
     inkscape:pageopacity="0.0"
     inkscape:pageshadow="2"
     inkscape:zoom="4.2323644"
     inkscape:cx="31.542653"
     inkscape:cy="4.8436284"
     inkscape:document-units="px"
     inkscape:current-layer="layer1"
     showgrid="false"
     fit-margin-top="0"
     fit-margin-left="0"
     fit-margin-right="0"
     fit-margin-bottom="0"
     inkscape:window-width="1680"
     inkscape:window-height="1005"
     inkscape:window-x="0"
     inkscape:window-y="23"
     inkscape:window-maximized="1"
     inkscape:pagecheckerboard="0" />
  <metadata
     id="metadata3214">
    <rdf:RDF>
      <cc:Work
         rdf:about="">
        <dc:format>image/svg+xml</dc:format>
        <dc:type
           rdf:resource="http://purl.org/dc/dcmitype/StillImage" />
        <dc:title>blinky</dc:title>
      </cc:Work>
    </rdf:RDF>
  </metadata>
  <g
     inkscape:label="Ebene 1"
     inkscape:groupmode="layer"
     id="layer1"
     transform="translate(-620.1475,-462.09155)">
    <g
       id="g3048"
       inkscape:label="#blinky"
       transform="translate(169.6996,-110.9135)"
       inkscape:export-xdpi="90"
       inkscape:export-ydpi="90">
      <title
         id="title3056">Blinky</title>
      <path
         inkscape:label="#Blinky"
         style="fill:#ca1111"
         d="m 453.98527,630.78254 c -1.20261,-1.71697 -1.55219,-4.9583 -1.53689,-14.25 0.0359,-21.77874 2.19013,-29.87068 9.77706,-36.72501 5.18333,-4.68283 10.07002,-6.27246 19.24739,-6.26115 6.37329,0.008 8.45651,0.47101 13.42172,2.98399 11.10162,5.61871 13.56334,12.02522 14.22783,37.02721 0.37412,14.07623 0.26991,15.17032 -1.60658,16.86853 -2.62623,2.3767 -5.53748,1.59732 -10.77301,-2.8841 -2.27268,-1.94533 -4.53179,-3.53696 -5.02024,-3.53696 -0.48844,0 -2.64574,1.8 -4.79398,4 -2.14824,2.2 -4.66557,4 -5.59406,4 -0.9285,0 -3.86642,-1.8 -6.52873,-4 -5.38287,-4.44815 -6.50891,-4.75708 -8.50477,-2.33328 -1.68026,2.04055 -8.87298,7.33328 -9.96577,7.33328 -0.4363,0 -1.49378,-1.00013 -2.34997,-2.22251 z m 28.75904,-24.89453 c 1.20134,-0.61437 2.89994,-2.01574 3.77466,-3.11415 1.57615,-1.97921 1.61346,-1.97404 4.16388,0.57638 3.54047,3.54047 7.20236,4.28434 11.35124,2.30588 3.99841,-1.90671 4.67607,-5.32912 1.1547,-5.83152 -2.47068,-0.35249 -3.68426,-3.59046 -1.58413,-4.22664 4.84428,-1.46744 4.92389,-1.53759 3.90525,-3.44092 -1.36593,-2.55226 -6.46932,-4.52241 -9.64805,-3.7246 -1.43304,0.35967 -3.73322,1.78163 -5.11151,3.15992 l -2.50598,2.50598 -2.32267,-2.5062 c -4.5492,-4.90867 -12.1154,-4.15202 -15.04029,1.5041 -1.77559,3.43363 -1.79018,5.67231 -0.0573,8.79874 2.44707,4.41505 7.67237,6.16541 11.92024,3.99303 z m -0.93574,-7.33507 c -0.7754,-2.02068 0.3778,-3.54789 2.67902,-3.54789 1.40371,0 1.94098,0.692 1.94098,2.5 0,1.84621 -0.53124,2.5 -2.03139,2.5 -1.11726,0 -2.28213,-0.65345 -2.58861,-1.45211 z"
         id="Blinky"
         inkscape:connector-curvature="0">
        <title
           id="title3046">Blinky</title>
      </path>
      <path
         transform="matrix(1.12,0,0,1.0188679,-61.321661,-12.313696)"
         d="m 507.85713,598.61218 c 0,5.22698 -3.99746,9.46429 -8.92857,9.46429 -4.93112,0 -8.92857,-4.23731 -8.92857,-9.46429 0,-5.22698 3.99745,-9.46428 8.92857,-9.46428 4.93111,0 8.92857,4.2373 8.92857,9.46428 z"
         sodipodi:ry="9.4642859"
         sodipodi:rx="8.9285717"
         sodipodi:cy="598.61218"
         sodipodi:cx="498.92856"
         id="path3004"
         style="fill:#ffffff;fill-opacity:1"
         sodipodi:type="arc" />
      <path
         transform="matrix(1.12,0,0,1.0188679,-79.535934,-12.544555)"
         d="m 507.85713,598.61218 c 0,5.22698 -3.99746,9.46429 -8.92857,9.46429 -4.93112,0 -8.92857,-4.23731 -8.92857,-9.46429 0,-5.22698 3.99745,-9.46428 8.92857,-9.46428 4.93111,0 8.92857,4.2373 8.92857,9.46428 z"
         sodipodi:ry="9.4642859"
         sodipodi:rx="8.9285717"
         sodipodi:cy="598.61218"
         sodipodi:cx="498.92856"
         id="path3004-1"
         style="fill:#ffffff;fill-opacity:1"
         sodipodi:type="arc" />
      <path
         transform="matrix(1.7599103,0,0,1.6850204,-365.34427,-410.69975)"
         d="m 485.12575,598.23547 c 0,1.63881 -1.27198,2.96733 -2.84105,2.96733 -1.56907,0 -2.84106,-1.32852 -2.84106,-2.96733 0,-1.6388 1.27199,-2.96732 2.84106,-2.96732 1.56907,0 2.84105,1.32852 2.84105,2.96732 z"
         sodipodi:ry="2.9673231"
         sodipodi:rx="2.841054"
         sodipodi:cy="598.23547"
         sodipodi:cx="482.2847"
         id="path3026"
         style="fill:#0000ff;fill-opacity:1"
         sodipodi:type="arc" />
      <path
         transform="matrix(1.7599103,0,0,1.6850204,-346.35319,-411.00305)"
         d="m 485.12575,598.23547 c 0,1.63881 -1.27198,2.96733 -2.84105,2.96733 -1.56907,0 -2.84106,-1.32852 -2.84106,-2.96733 0,-1.6388 1.27199,-2.96732 2.84106,-2.96732 1.56907,0 2.84105,1.32852 2.84105,2.96732 z"
         sodipodi:ry="2.9673231"
         sodipodi:rx="2.841054"
         sodipodi:cy="598.23547"
         sodipodi:cx="482.2847"
         id="path3026-7"
         style="fill:#0000ff;fill-opacity:1"
         sodipodi:type="arc" />
    </g>
    <path
       style="fill:#0000ff;stroke-width:0.236275"
       d="M 5.2766353,59.53319 C 4.5025448,59.081447 3.1962083,56.990696 2.8314458,55.619739 2.2542136,53.450214 2.000467,45.71317 2.2424778,37.661382 2.6169617,25.202173 3.6611058,19.228119 6.3865454,13.951166 8.25692,10.329775 11.276683,7.0200053 15.045462,4.4606757 c 3.9997,-2.7161443 8.445946,-3.75624827 16.018444,-3.74717177 6.187988,0.007417 8.183232,0.43567667 12.873247,2.76311617 8.595189,4.265397 11.803601,8.9323139 13.352477,19.4223359 0.26063,1.765161 0.578868,4.485265 0.707196,6.044677 0.380509,4.623836 0.774768,17.147413 0.680268,21.608461 -0.08162,3.852775 -0.129283,4.227448 -0.675098,5.306625 -0.772157,1.526695 -2.178532,2.530387 -3.758278,2.682179 -1.760167,0.16913 -3.913618,-0.949911 -7.755556,-4.030173 -1.72122,-1.379983 -3.61187,-2.791754 -4.201444,-3.137268 l -1.071949,-0.628204 -0.906075,0.627911 c -0.498341,0.345351 -2.175959,1.821966 -3.728039,3.281365 -3.501128,3.292058 -4.972991,4.287022 -6.044177,4.085801 -0.865571,-0.162599 -3.663515,-1.895498 -5.609513,-3.474237 -3.978836,-3.227931 -5.605381,-4.230789 -6.861963,-4.230789 -0.603011,0 -1.11146,0.359132 -2.785639,1.967576 -2.97037,2.853745 -8.3756868,6.788577 -9.2964353,6.767397 -0.171786,-0.0039 -0.4896178,-0.11064 -0.7062924,-0.237087 z M 50.279029,33.784735 c 2.922411,-0.902639 5.187327,-3.091945 6.326955,-6.115737 0.752639,-1.996988 0.580732,-5.020975 -0.404362,-7.113112 -0.778813,-1.654035 -2.109625,-3.174696 -3.603835,-4.11795 -2.866844,-1.809759 -6.786726,-2.066825 -9.832093,-0.644788 -1.705264,0.796275 -2.99598,1.858778 -4.141122,3.408934 l -0.658063,0.890804 -0.480863,-0.772667 c -0.760469,-1.221948 -2.645604,-2.93304 -3.944647,-3.580459 -5.152524,-2.567925 -11.364304,-0.54486 -13.854912,4.512295 -0.737445,1.497374 -0.784123,1.740168 -0.784123,4.078629 0,2.308729 0.05421,2.600915 0.758272,4.087299 0.955646,2.017509 2.641362,3.687533 4.741695,4.697554 2.151948,1.034843 5.097731,1.215735 7.569872,0.464845 1.995662,-0.606165 4.163139,-2.137836 5.164423,-3.6495 l 0.719978,-1.086969 0.850064,1.234256 c 2.425233,3.521327 7.210438,5.053953 11.572761,3.706566 z"
       id="path279"
       transform="translate(620.1475,462.09155)" />
  </g>
</svg>
