<?xml version="1.0" encoding="UTF-8" standalone="no"?>
<!-- Created with Inkscape (http://www.inkscape.org/) -->

<svg
   width="60"
   height="60"
   id="svg3209"
   version="1.1"
   inkscape:version="1.1 (c4e8f9e, 2021-05-24)"
   sodipodi:docname="pinky.svg"
   xmlns:inkscape="http://www.inkscape.org/namespaces/inkscape"
   xmlns:sodipodi="http://sodipodi.sourceforge.net/DTD/sodipodi-0.dtd"
   xmlns="http://www.w3.org/2000/svg"
   xmlns:svg="http://www.w3.org/2000/svg"
   xmlns:rdf="http://www.w3.org/1999/02/22-rdf-syntax-ns#"
   xmlns:cc="http://creativecommons.org/ns#"
   xmlns:dc="http://purl.org/dc/elements/1.1/">
  <title
     id="title3238">pinky</title>
  <defs
     id="defs3211" />
  <sodipodi:namedview
     id="base"
     pagecolor="#ffffff"
     bordercolor="#666666"
     borderopacity="1.0"
     inkscape:pageopacity="0.0"
     inkscape:pageshadow="2"
     inkscape:zoom="4.1902768"
     inkscape:cx="28.518403"
     inkscape:cy="8.4719941"
     inkscape:document-units="px"
     inkscape:current-layer="g3048"
     showgrid="false"
     fit-margin-top="0"
     fit-margin-left="0"
     fit-margin-right="0"
     fit-margin-bottom="0"
     inkscape:window-width="1316"
     inkscape:window-height="1003"
     inkscape:window-x="0"
     inkscape:window-y="23"
     inkscape:window-maximized="0"
     inkscape:pagecheckerboard="0" />
  <metadata
     id="metadata3214">
    <rdf:RDF>
      <cc:Work
         rdf:about="">
        <dc:format>image/svg+xml</dc:format>
        <dc:type
           rdf:resource="http://purl.org/dc/dcmitype/StillImage" />
        <dc:title>pinky</dc:title>
      </cc:Work>
    </rdf:RDF>
  </metadata>
  <g
     inkscape:label="Ebene 1"
     inkscape:groupmode="layer"
     id="layer1"
     transform="translate(-620.1475,-462.09155)">
    <g
       id="g3048"
       inkscape:label="#blinky"
       transform="translate(169.6996,-110.9135)"
       inkscape:export-xdpi="90"
       inkscape:export-ydpi="90">
      <title
         id="title3056">Blinky</title>
      <path
         inkscape:label="#Blinky"
         style="fill:#ff00ff"
         d="m 453.98527,630.78254 c -1.20261,-1.71697 -1.55219,-4.9583 -1.53689,-14.25 0.0359,-21.77874 2.19013,-29.87068 9.77706,-36.72501 5.18333,-4.68283 10.07002,-6.27246 19.24739,-6.26115 6.37329,0.008 8.45651,0.47101 13.42172,2.98399 11.10162,5.61871 13.56334,12.02522 14.22783,37.02721 0.37412,14.07623 0.26991,15.17032 -1.60658,16.86853 -2.62623,2.3767 -5.53748,1.59732 -10.77301,-2.8841 -2.27268,-1.94533 -4.53179,-3.53696 -5.02024,-3.53696 -0.48844,0 -2.64574,1.8 -4.79398,4 -2.14824,2.2 -4.66557,4 -5.59406,4 -0.9285,0 -3.86642,-1.8 -6.52873,-4 -5.38287,-4.44815 -6.50891,-4.75708 -8.50477,-2.33328 -1.68026,2.04055 -8.87298,7.33328 -9.96577,7.33328 -0.4363,0 -1.49378,-1.00013 -2.34997,-2.22251 z m 28.75904,-24.89453 c 1.20134,-0.61437 2.89994,-2.01574 3.77466,-3.11415 1.57615,-1.97921 1.61346,-1.97404 4.16388,0.57638 3.54047,3.54047 7.20236,4.28434 11.35124,2.30588 3.99841,-1.90671 4.67607,-5.32912 1.1547,-5.83152 -2.47068,-0.35249 -3.68426,-3.59046 -1.58413,-4.22664 4.84428,-1.46744 4.92389,-1.53759 3.90525,-3.44092 -1.36593,-2.55226 -6.46932,-4.52241 -9.64805,-3.7246 -1.43304,0.35967 -3.73322,1.78163 -5.11151,3.15992 l -2.50598,2.50598 -2.32267,-2.5062 c -4.5492,-4.90867 -12.1154,-4.15202 -15.04029,1.5041 -1.77559,3.43363 -1.79018,5.67231 -0.0573,8.79874 2.44707,4.41505 7.67237,6.16541 11.92024,3.99303 z m -0.93574,-7.33507 c -0.7754,-2.02068 0.3778,-3.54789 2.67902,-3.54789 1.40371,0 1.94098,0.692 1.94098,2.5 0,1.84621 -0.53124,2.5 -2.03139,2.5 -1.11726,0 -2.28213,-0.65345 -2.58861,-1.45211 z"
         id="Blinky"
         inkscape:connector-curvature="0">
        <title
           id="title3046">Blinky</title>
      </path>
      <path
         transform="matrix(1.12,0,0,1.0188679,-61.321661,-12.313696)"
         d="m 507.85713,598.61218 c 0,5.22698 -3.99746,9.46429 -8.92857,9.46429 -4.93112,0 -8.92857,-4.23731 -8.92857,-9.46429 0,-5.22698 3.99745,-9.46428 8.92857,-9.46428 4.93111,0 8.92857,4.2373 8.92857,9.46428 z"
         sodipodi:ry="9.4642859"
         sodipodi:rx="8.9285717"
         sodipodi:cy="598.61218"
         sodipodi:cx="498.92856"
         id="path3004"
         style="fill:#ffffff;fill-opacity:1"
         sodipodi:type="arc" />
      <path
         transform="matrix(1.12,0,0,1.0188679,-79.535934,-12.544555)"
         d="m 507.85713,598.61218 c 0,5.22698 -3.99746,9.46429 -8.92857,9.46429 -4.93112,0 -8.92857,-4.23731 -8.92857,-9.46429 0,-5.22698 3.99745,-9.46428 8.92857,-9.46428 4.93111,0 8.92857,4.2373 8.92857,9.46428 z"
         sodipodi:ry="9.4642859"
         sodipodi:rx="8.9285717"
         sodipodi:cy="598.61218"
         sodipodi:cx="498.92856"
         id="path3004-1"
         style="fill:#ffffff;fill-opacity:1"
         sodipodi:type="arc" />
      <path
         transform="matrix(1.7599103,0,0,1.6850204,-365.34427,-410.69975)"
         d="m 485.12575,598.23547 c 0,1.63881 -1.27198,2.96733 -2.84105,2.96733 -1.56907,0 -2.84106,-1.32852 -2.84106,-2.96733 0,-1.6388 1.27199,-2.96732 2.84106,-2.96732 1.56907,0 2.84105,1.32852 2.84105,2.96732 z"
         sodipodi:ry="2.9673231"
         sodipodi:rx="2.841054"
         sodipodi:cy="598.23547"
         sodipodi:cx="482.2847"
         id="path3026"
         style="fill:#0000ff;fill-opacity:1"
         sodipodi:type="arc" />
      <path
         transform="matrix(1.7599103,0,0,1.6850204,-346.35319,-411.00305)"
         d="m 485.12575,598.23547 c 0,1.63881 -1.27198,2.96733 -2.84105,2.96733 -1.56907,0 -2.84106,-1.32852 -2.84106,-2.96733 0,-1.6388 1.27199,-2.96732 2.84106,-2.96732 1.56907,0 2.84105,1.32852 2.84105,2.96732 z"
         sodipodi:ry="2.9673231"
         sodipodi:rx="2.841054"
         sodipodi:cy="598.23547"
         sodipodi:cx="482.2847"
         id="path3026-7"
         style="fill:#0000ff;fill-opacity:1"
         sodipodi:type="arc" />
      <path
         style="fill:#800080;stroke-width:0.714286"
         d="M 4.1236093,57.706328 C 3.0124919,56.00734 2.8573878,53.926444 2.8591396,40.742042 2.8617862,20.823786 4.3529722,14.895388 11.048619,8.1837386 c 5.18968,-5.202085 8.993892,-6.6746345 18.078299,-6.9978215 6.569778,-0.23372655 8.301795,-0.048202 11.81467,1.2655258 7.719425,2.8868725 13.335781,8.4541081 14.821037,14.6914141 l 0.510266,2.142857 -1.707874,-1.559563 c -4.607306,-4.207207 -11.192804,-4.027396 -15.21347,0.41539 -1.356903,1.499361 -1.361185,1.499486 -2.363103,0.06905 -2.340893,-3.342095 -8.901093,-4.646894 -12.918458,-2.569433 -10.69254,5.529327 -4.33826,20.915275 7.537157,18.250111 1.473214,-0.330629 3.492185,-1.508868 4.486602,-2.61831 l 1.808031,-2.017167 1.6255,1.962761 c 2.023373,2.443183 6.236613,3.774987 9.817301,3.103246 2.976904,-0.558471 7.387389,-4.409942 7.525648,-6.571799 0.04791,-0.749094 0.320674,-0.393319 0.629775,0.821429 0.299896,1.178571 0.583294,7.798397 0.629775,14.710722 0.0762,11.33223 -0.04391,12.684091 -1.221733,13.75 -2.23613,2.02367 -4.746283,1.409499 -9.765185,-2.389294 -2.595181,-1.964286 -5.218921,-3.571428 -5.830534,-3.571428 -0.611614,0 -2.870494,1.607142 -5.019736,3.571428 -2.149241,1.964286 -4.565708,3.571429 -5.369925,3.571429 -0.804217,0 -3.630129,-1.607143 -6.279805,-3.571429 -2.649676,-1.964286 -5.376526,-3.571428 -6.059667,-3.571428 -0.683141,0 -2.733111,1.226224 -4.55549,2.724943 -3.797477,3.123036 -7.6305987,5.846485 -8.2286411,5.846485 -0.2249408,0 -0.9788931,-0.871438 -1.6754496,-1.936529 z"
         id="path432"
         transform="translate(450.4479,573.00505)" />
      <path
         style="fill:#800080;stroke-width:0.238648"
         d="M 3.2262572,56.863943 C 2.9630428,56.268901 2.6204865,54.93676 2.4650209,53.903628 2.0965427,51.454935 2.106386,35.517405 2.4791517,31.024204 c 0.3473362,-4.186683 0.7905646,-7.728192 0.919154,-7.344278 0.053875,0.160847 -0.02522,1.395849 -0.175765,2.744449 -0.382588,3.427258 -0.5870551,22.721732 -0.2804439,26.463991 0.1356833,1.656045 0.4166077,3.417647 0.6242764,3.914667 0.5424215,1.298198 0.2318018,1.353825 -0.340116,0.06091 z"
         id="path471"
         transform="translate(450.4479,573.00505)" />
      <path
         style="fill:#800080;stroke-width:0.238648"
         d="m 28.470173,57.75653 c -1.642915,-0.961724 -2.396968,-1.554992 -1.976421,-1.554992 0.08324,0 0.868167,0.423014 1.74428,0.940031 2.206365,1.302032 2.61056,1.365294 4.053007,0.634351 0.662853,-0.335893 1.272822,-0.720148 1.355485,-0.853901 0.08266,-0.133752 0.2645,-0.243185 0.404082,-0.243185 0.462997,0 -0.34757,0.743688 -1.58279,1.452196 -0.66273,0.380135 -1.421993,0.692162 -1.68725,0.693394 -0.265257,0.0012 -1.304934,-0.479321 -2.310393,-1.067894 z"
         id="path510"
         transform="translate(450.4479,573.00505)" />
      <path
         style="fill:#800080;stroke-width:0.238648"
         d=""
         id="path549"
         transform="translate(450.4479,573.00505)" />
    </g>
  </g>
</svg>
